<svg width="570" height="581" viewBox="0 0 570 581" fill="none" xmlns="http://www.w3.org/2000/svg">
<path d="M468.066 0V1H472C473.277 1 474.549 1.02432 475.814 1.07324L475.853 0.0742188C478.437 0.174118 480.995 0.374631 483.524 0.670898L483.409 1.66406C485.948 1.9615 488.457 2.35709 490.932 2.84668L491.125 1.86719C493.657 2.36805 496.154 2.9654 498.611 3.65723L498.341 4.61914C500.796 5.31015 503.211 6.09545 505.583 6.9707L505.928 6.0332C508.344 6.92493 510.716 7.90899 513.038 8.98145L512.62 9.88867C514.932 10.9561 517.194 12.1118 519.403 13.3516L519.892 12.4805C522.134 13.7387 524.321 15.0828 526.449 16.5078L525.894 17.3379C528.007 18.7527 530.062 20.2482 532.054 21.8203L532.672 21.0352C534.687 22.6261 536.639 24.2947 538.521 26.0361L537.844 26.7695C539.709 28.4942 541.506 30.2914 543.23 32.1562L543.963 31.4775C545.704 33.3605 547.373 35.3117 548.964 37.3271L548.18 37.9463C549.752 39.9378 551.247 41.9931 552.662 44.1064L553.491 43.5498C554.916 45.6783 556.26 47.8655 557.519 50.1074L556.648 50.5967C557.888 52.8057 559.044 55.0683 560.111 57.3799L561.018 56.9609C562.09 59.2834 563.074 61.6549 563.966 64.0713L563.029 64.417C563.905 66.7886 564.69 69.2045 565.381 71.6592L566.342 71.3877C567.034 73.8453 567.631 76.3422 568.132 78.874L567.153 79.0684C567.643 81.5432 568.039 84.052 568.336 86.5908L569.328 86.4746C569.624 89.0038 569.825 91.5622 569.925 94.1465L568.927 94.1855C568.976 95.4509 569 96.7226 569 98V102.025H570V110.075H569V118.125H570V126.175H569V134.226H570V142.275H569V150.325H570V158.375H569V166.425H570V174.476H569V182.525H570V190.575H569V198.625H570V206.675H569V214.725H570V222.775H569V230.825H570V238.875H569V246.925H570V254.975H569V263.025H570V271.075H569V279.125H570V287.175H569V295.225H570V303.275H569V311.325H570V319.375H569V327.425H570V335.475H569V343.525H570V351.575H569V359.625H570V367.675H569V375.725H570V383.775H569V391.825H570V399.875H569V407.925H570V415.975H569V424.025H570V432.075H569V440.125H570V448.175H569V456.225H570V464.275H569V472.325H570V480.375H569V488.425H570V496.475H569V504.525H570V512.575H569V520.625H570V528.675H569V536.725H570V544.775H569V552.825H570V560.875H569V568.925H570V576.975H569V580H566.04V581H558.121V580H550.201V581H542.282V580H534.362V581H526.443V580H518.524V581H510.604V580H502.686V581H494.766V580H486.847V581H478.927V580H471.008V581H463.089V580H455.169V581H447.25V580H439.33V581H431.411V580H423.492V581H415.572V580H407.653V581H399.733V580H391.814V581H383.896V580H375.976V581H368.057V580H360.137V581H352.218V580H344.299V581H336.379V580H328.46V581H320.54V580H312.621V581H304.701V580H296.782V581H288.863V580H280.943V581H273.024V580H265.104V581H257.186V580H249.267V581H241.347V580H233.428V581H225.508V580H217.589V581H209.669V580H201.75V581H193.831V580H185.911V581H177.992V580H170.072V581H162.153V580H154.233V581H146.314V580H138.396V581H130.476V580H122.557V581H114.637V580H106.718V581H98.7988V580H90.8789V581H82.96V580H79C77.7159 580 76.4387 579.969 75.1699 579.907L75.1221 580.905C72.5142 580.779 69.9398 580.526 67.4043 580.153L67.5498 579.166C65.0045 578.792 62.499 578.294 60.04 577.68L59.7979 578.648C57.274 578.018 54.7982 577.267 52.377 576.4L52.7148 575.46C50.3007 574.596 47.9411 573.617 45.6436 572.528L45.2158 573.431C42.8717 572.32 40.5913 571.097 38.3809 569.77L38.8955 568.914C36.7027 567.597 34.58 566.175 32.5342 564.655L31.9375 565.457C29.8599 563.914 27.86 562.272 25.9463 560.536L26.6182 559.795C24.7269 558.08 22.9202 556.273 21.2051 554.382L20.4629 555.053C18.7274 553.139 17.0853 551.139 15.542 549.062L16.3447 548.466C14.825 546.42 13.403 544.297 12.0859 542.104L11.2295 542.618C9.90183 540.408 8.67895 538.127 7.56836 535.783L8.47168 535.356C7.38313 533.059 6.40395 530.699 5.54004 528.285L4.59863 528.622C3.73219 526.201 2.9808 523.725 2.35059 521.201L3.32031 520.96C2.70628 518.501 2.20839 515.996 1.83398 513.45L0.845703 513.595C0.472788 511.059 0.219771 508.485 0.09375 505.877L1.09277 505.83C1.03144 504.561 1 503.284 1 502V497.951H0V489.854H1V481.758H0V473.661H1V465.564H0V457.468H1V449.371H0V441.274H1V433.178H0V425.08H1V416.983H0V408.887H1V400.79H0V392.693H1V384.597H0V376.5H1V368.403H0V360.307H1V352.21H0V344.113H1V336.016H0V327.919H1V319.822H0V311.726H1V303.629H0V295.532H1V287.436H0V279.339H1V271.242H0V263.146H1V255.048H0V246.951H1V238.854H0V230.758H1V222.661H0V214.564H1V206.468H0V198.371H1V190.274H0V182.178H1V174.081H0V165.983H1V157.887H0V149.79H1V141.693H0V133.597H1V125.5H0V117.403H1V109.307H0V101.21H1V93.1133H0V85.0166H1V76.9189H0V68.8223H1V60.7256H0V52.6289H1V44.5322H0V36.4355H1V28.3389H0V20.2422H1V12.1455H0V4.04883H1V1H3.93359V0H11.7998V1H19.667V0H27.5332V1H35.4004V0H43.2666V1H51.1328V0H59V1H66.8662V0H74.7334V1H82.5996V0H90.4668V1H98.333V0H106.2V1H114.066V0H121.934V1H129.8V0H137.667V1H145.533V0H153.4V1H161.267V0H169.133V1H177V0H184.866V1H192.733V0H200.6V1H208.467V0H216.333V1H224.2V0H232.066V1H239.934V0H247.8V1H255.667V0H263.533V1H271.4V0H279.267V1H287.133V0H295V1H302.866V0H310.733V1H318.6V0H326.467V1H334.333V0H342.2V1H350.066V0H357.934V1H365.8V0H373.667V1H381.533V0H389.4V1H397.267V0H405.134V1H413V0H420.866V1H428.733V0H436.6V1H444.467V0H452.333V1H460.2V0H468.066Z" stroke="#BAC4F6" stroke-width="2" stroke-dasharray="8 8"/>
</svg>
